<?xml version="1.0" ?><!DOCTYPE svg  PUBLIC '-//W3C//DTD SVG 1.1//EN'  'http://www.w3.org/Graphics/SVG/1.1/DTD/svg11.dtd'><svg enable-background="new 0 0 75 75" height="75px" id="Calque_1" version="1.1" viewBox="0 0 75 75" width="75px" xml:space="preserve" xmlns="http://www.w3.org/2000/svg" xmlns:xlink="http://www.w3.org/1999/xlink"><g><g><path d="M35.417,49.653c-2.313-0.176-3.747-1.353-4.108-1.662c-0.276-0.233-0.541-0.478-0.771-0.697l-0.416-0.415    c-2.008-2.132-2.649-4.37-2.144-7.481c0.215-1.315,0.697-2.526,1.207-3.809c0.139-0.349,0.278-0.701,0.414-1.057    c0.145,0.955,0.239,1.869,0.273,2.532l0.158,3.068l1.678-2.574c2.011-3.085,3.734-9.5,4-14.189    c0.062-1.12-0.073-2.176-0.516-3.533s-1.766-1.13-1.766-1.13l0.25,2.101c0.374,3.146-0.687,8.775-2.215,12.734    c-0.233-1.326-0.436-2.179-0.68-3.322c-0.407-1.905-1.719-3.062-1.719-3.062s0.031,1.188-0.281,3.094    c-0.315,1.919-0.847,3.073-1.454,4.601c-0.526,1.325-1.071,2.695-1.322,4.226c-0.609,3.745,0.212,6.574,2.681,9.195l0.455,0.454    c0.272,0.261,0.569,0.533,0.873,0.79c0.609,0.52,2.432,1.917,5.251,2.131c0.026,0.002,0.052,0.003,0.077,0.003    c0.518,0,0.956-0.399,0.996-0.924C36.38,50.175,35.967,49.695,35.417,49.653z" fill="#DA7100"/></g><g><path d="M48.76,34.494c-0.888-4.016-3.135-7.182-3.793-7.935c-1.238-1.518-2.28-1.778-2.28-1.778    s0.583,1.344,0.676,2.867s-0.149,2.049-0.67,3.38c-0.417-1.435-2.568-5.998-4.068-8.279c-1.417-2.154-3.421-4.457-5.491-5.747    c0.047,0.496,0.322,1.855,0.369,2.344c3.415,3.462,7.2,11.466,7.852,14.589l0.405,1.938l1.32-1.476    c0.662-0.74,1.521-2.485,1.987-4.193c0.634,1.197,1.321,2.822,1.741,4.722c0.693,3.134,0.767,7.717-2.815,11.751    c-0.624,0.704-1.977,2.816-4.759,2.974c-0.552,0.032-0.973,0.504-0.942,1.055c0.03,0.532,0.471,0.943,0.998,0.943    c0.019,0,0.039,0,0.058-0.001c2.397-0.137,4.102-1.344,6.141-3.644C49.63,43.34,49.554,38.083,48.76,34.494z" fill="#DA7100"/></g></g></svg>